<svg data-v-423bf9ae="" xmlns="http://www.w3.org/2000/svg" viewBox="0 0 892 90" class="iconLeft"><!----><!----><!----><g data-v-423bf9ae="" id="5aab7660-ef9d-4613-94bc-9ff1ff37d78e" fill="black" transform="matrix(9.556655573992712,0,0,9.556655573992712,89.85394882090583,-36.11855140022685)"><path d="M1.65 5.58L1.65 5.58L1.65 5.58Q1.70 5.56 1.77 5.55L1.77 5.55L1.77 5.55Q1.84 5.55 1.91 5.56L1.91 5.56L1.91 5.56Q1.98 5.58 2.03 5.61L2.03 5.61L2.03 5.61Q2.09 5.65 2.12 5.69L2.12 5.69L2.12 5.69Q2.37 6.21 2.57 6.73L2.57 6.73L2.57 6.73Q2.77 7.25 3.03 7.76L3.03 7.76L3.03 7.76Q3.23 8.15 3.39 8.58L3.39 8.58L3.39 8.58Q3.55 9.00 3.77 9.43L3.77 9.43L3.79 9.46L3.79 9.47L3.79 9.47Q3.90 9.67 3.99 9.81L3.99 9.81L3.99 9.81Q4.07 9.95 4.13 10.02L4.13 10.02L4.13 10.02Q4.61 10.67 5.13 10.96L5.13 10.96L5.13 10.96Q5.63 11.25 6.26 11.21L6.26 11.21L6.26 11.20L6.27 11.20L6.27 11.20Q6.47 11.20 6.50 11.40L6.50 11.40L6.50 11.40Q6.51 11.61 6.30 11.62L6.30 11.62L6.30 11.62Q5.44 11.68 4.77 11.25L4.77 11.25L4.77 11.25Q4.29 10.94 3.96 10.48L3.96 10.48L3.96 10.48Q3.62 10.01 3.39 9.53L3.39 9.53L3.39 9.53Q3.32 9.37 3.24 9.21L3.24 9.21L3.24 9.21Q3.17 9.05 3.07 8.91L3.07 8.91L3.07 8.91Q2.99 8.78 2.90 8.70L2.90 8.70L2.90 8.70Q2.80 8.61 2.71 8.56L2.71 8.56L2.71 8.56Q2.60 8.51 2.48 8.48L2.48 8.48L2.48 8.48Q2.35 8.46 2.20 8.46L2.20 8.46L2.20 8.46Q2.08 8.46 1.90 8.48L1.90 8.48L1.90 8.48Q1.73 8.50 1.51 8.51L1.51 8.51L1.38 8.52L1.38 8.52Q1.22 8.53 1.05 8.56L1.05 8.56L1.05 8.56Q0.88 8.59 0.75 8.70L0.75 8.70L0.75 8.70Q0.70 8.74 0.66 8.81L0.66 8.81L0.66 8.81Q0.62 8.88 0.58 8.98L0.58 8.98L0.58 8.98Q0.55 9.06 0.52 9.16L0.52 9.16L0.52 9.16Q0.49 9.26 0.45 9.37L0.45 9.37L0.45 9.37Q0.42 9.43 0.37 9.61L0.37 9.61L0.37 9.61Q0.19 9.82 0.08 9.78L0.08 9.78L0.08 9.78Q0.03 9.75 0.01 9.64L0.01 9.64L0.01 9.64Q0 9.54 0.00 9.45L0.00 9.45L0.00 9.45Q0.01 9.36 0.04 9.26L0.04 9.26L0.04 9.26Q0.16 8.89 0.33 8.52L0.33 8.52L0.33 8.52Q0.49 8.15 0.66 7.78L0.66 7.78L0.66 7.78Q0.79 7.49 0.92 7.21L0.92 7.21L0.92 7.21Q1.05 6.92 1.18 6.62L1.18 6.62L1.18 6.62Q1.23 6.48 1.28 6.34L1.28 6.34L1.28 6.34Q1.33 6.20 1.39 6.06L1.39 6.06L1.50 5.81L1.50 5.81Q1.59 5.63 1.65 5.58ZM1.86 6.49L1.86 6.49L1.86 6.49Q1.73 6.49 1.66 6.60L1.66 6.60L1.66 6.60Q1.61 6.64 1.57 6.75L1.57 6.75L1.57 6.75Q1.50 6.84 1.46 6.96L1.46 6.96L1.46 6.96Q1.42 7.08 1.37 7.21L1.37 7.21L1.37 7.21Q1.28 7.49 1.24 7.67L1.24 7.67L1.24 7.67Q1.20 8.00 1.36 8.09L1.36 8.09L1.36 8.09Q1.41 8.12 1.45 8.12L1.45 8.12L1.45 8.12Q1.52 8.13 1.63 8.13L1.63 8.13L1.63 8.13Q1.74 8.13 1.88 8.13L1.88 8.13L1.88 8.13Q1.99 8.13 2.15 8.13L2.15 8.13L2.15 8.13Q2.31 8.12 2.42 8.09L2.42 8.09L2.52 8.06L2.54 7.96L2.54 7.96Q2.58 7.84 2.53 7.67L2.53 7.67L2.53 7.67Q2.48 7.51 2.37 7.28L2.37 7.28L2.37 7.28Q2.26 7.05 2.18 6.88L2.18 6.88L2.18 6.88Q2.11 6.71 2.05 6.60L2.05 6.60L2.05 6.60Q1.98 6.48 1.86 6.49ZM8.74 9.26L8.74 9.26L8.74 9.26Q8.23 9.71 7.52 9.75L7.52 9.75L7.52 9.75Q6.83 9.78 6.21 9.53L6.21 9.53L6.21 9.52L6.19 9.52L6.19 9.52Q6.09 9.49 5.90 9.33L5.90 9.33L5.90 9.33Q5.71 9.17 5.65 9.08L5.65 9.08L5.65 9.08Q5.55 8.95 5.47 8.78L5.47 8.78L5.47 8.78Q5.39 8.61 5.31 8.45L5.31 8.45L5.31 8.45Q5.16 8.16 5.15 7.95L5.15 7.95L5.15 7.95Q5.14 7.85 5.14 7.71L5.14 7.71L5.14 7.71Q5.15 7.58 5.16 7.41L5.16 7.41L5.16 7.41Q5.22 6.66 5.63 6.02L5.63 6.02L5.63 6.02Q5.67 5.97 5.76 5.89L5.76 5.89L5.76 5.89Q5.86 5.81 6.01 5.73L6.01 5.73L6.01 5.73Q6.32 5.56 6.54 5.49L6.54 5.49L6.54 5.49Q6.69 5.44 6.86 5.42L6.86 5.42L6.86 5.42Q7.27 5.37 7.70 5.42L7.70 5.42L7.70 5.42Q8.13 5.48 8.50 5.69L8.50 5.69L8.50 5.69Q8.56 5.72 8.62 5.77L8.62 5.77L8.62 5.77Q8.69 5.82 8.78 5.89L8.78 5.89L8.78 5.89Q8.95 6.02 8.97 6.15L8.97 6.15L8.97 6.15Q8.98 6.21 8.93 6.27L8.93 6.27L8.93 6.27Q8.85 6.36 8.78 6.36L8.78 6.36L8.78 6.36Q8.70 6.36 8.61 6.30L8.61 6.30L8.61 6.30Q8.51 6.23 8.46 6.19L8.46 6.19L8.46 6.19Q8.34 6.12 8.27 6.07L8.27 6.07L8.27 6.07Q8.20 6.02 8.18 6.01L8.18 6.01L8.18 6.01Q7.83 5.82 7.33 5.82L7.33 5.82L7.33 5.82Q7.22 5.82 7.08 5.83L7.08 5.83L7.08 5.83Q6.95 5.84 6.79 5.87L6.79 5.87L6.77 5.87L6.76 5.88L6.76 5.88Q5.89 6.13 5.63 7.06L5.63 7.06L5.63 7.06Q5.54 7.40 5.60 7.70L5.60 7.70L5.60 7.70Q5.65 8.00 5.73 8.31L5.73 8.31L5.73 8.31Q5.86 8.79 6.16 9.00L6.16 9.00L6.16 9.00Q6.46 9.21 6.92 9.30L6.92 9.30L6.92 9.30L6.92 9.30Q7.05 9.32 7.15 9.32L7.15 9.32L7.15 9.32Q7.26 9.32 7.36 9.30L7.36 9.30L7.36 9.30Q7.46 9.28 7.57 9.26L7.57 9.26L7.57 9.26Q7.68 9.24 7.80 9.23L7.80 9.23L7.80 9.23Q8.29 9.17 8.49 8.88L8.49 8.88L8.49 8.87L8.49 8.87Q8.64 8.64 8.61 8.22L8.61 8.22L8.61 8.22Q8.61 8.00 8.46 7.87L8.46 7.87L8.46 7.87Q8.27 7.70 7.94 7.71L7.94 7.71L7.40 7.73L7.40 7.73Q7.31 7.74 7.24 7.74L7.24 7.74L7.24 7.74Q7.17 7.75 7.12 7.75L7.12 7.75L7.12 7.75Q6.86 7.71 6.89 7.51L6.89 7.51L6.89 7.51Q6.91 7.38 7.08 7.33L7.08 7.33L7.08 7.33Q7.39 7.31 7.69 7.33L7.69 7.33L7.69 7.33Q7.98 7.35 8.30 7.33L8.30 7.33L8.59 7.31L8.59 7.31Q8.79 7.29 8.89 7.38L8.89 7.38L8.89 7.38Q9.00 7.46 9.00 7.66L9.00 7.66L9.00 7.66Q9.02 7.87 9.02 7.98L9.02 7.98L9.02 7.98Q9.02 8.16 9.03 8.36L9.03 8.36L9.03 8.36Q9.04 8.57 9.00 8.74L9.00 8.74L9.00 8.74Q8.96 9.00 8.74 9.26ZM14.38 9.26L14.38 9.26L14.38 9.26Q13.88 9.71 13.17 9.75L13.17 9.75L13.17 9.75Q12.48 9.78 11.86 9.53L11.86 9.53L11.85 9.52L11.84 9.52L11.84 9.52Q11.74 9.49 11.55 9.33L11.55 9.33L11.55 9.33Q11.36 9.17 11.30 9.08L11.30 9.08L11.30 9.08Q11.20 8.95 11.12 8.78L11.12 8.78L11.12 8.78Q11.04 8.61 10.96 8.45L10.96 8.45L10.96 8.45Q10.81 8.16 10.79 7.95L10.79 7.95L10.79 7.95Q10.79 7.85 10.79 7.71L10.79 7.71L10.79 7.71Q10.79 7.58 10.81 7.41L10.81 7.41L10.81 7.41Q10.87 6.66 11.28 6.02L11.28 6.02L11.28 6.02Q11.31 5.97 11.41 5.89L11.41 5.89L11.41 5.89Q11.50 5.81 11.66 5.73L11.66 5.73L11.66 5.73Q11.97 5.56 12.19 5.49L12.19 5.49L12.19 5.49Q12.33 5.44 12.51 5.42L12.51 5.42L12.51 5.42Q12.92 5.37 13.35 5.42L13.35 5.42L13.35 5.42Q13.78 5.48 14.15 5.69L14.15 5.69L14.15 5.69Q14.21 5.72 14.27 5.77L14.27 5.77L14.27 5.77Q14.33 5.82 14.42 5.89L14.42 5.89L14.42 5.89Q14.59 6.02 14.62 6.15L14.62 6.15L14.62 6.15Q14.62 6.21 14.57 6.27L14.57 6.27L14.57 6.27Q14.50 6.36 14.43 6.36L14.43 6.36L14.43 6.36Q14.35 6.36 14.25 6.30L14.25 6.30L14.25 6.30Q14.16 6.23 14.10 6.19L14.10 6.19L14.10 6.19Q13.99 6.12 13.91 6.07L13.91 6.07L13.91 6.07Q13.84 6.02 13.83 6.01L13.83 6.01L13.83 6.01Q13.48 5.82 12.98 5.82L12.98 5.82L12.98 5.82Q12.87 5.82 12.73 5.83L12.73 5.83L12.73 5.83Q12.59 5.84 12.43 5.87L12.43 5.87L12.42 5.87L12.41 5.88L12.41 5.88Q11.54 6.13 11.28 7.06L11.28 7.06L11.28 7.06Q11.19 7.40 11.24 7.70L11.24 7.70L11.24 7.70Q11.29 8.00 11.38 8.31L11.38 8.31L11.38 8.31Q11.50 8.79 11.81 9.00L11.81 9.00L11.81 9.00Q12.11 9.21 12.56 9.30L12.56 9.30L12.57 9.30L12.57 9.30Q12.69 9.32 12.80 9.32L12.80 9.32L12.80 9.32Q12.91 9.32 13.01 9.30L13.01 9.30L13.01 9.30Q13.11 9.28 13.22 9.26L13.22 9.26L13.22 9.26Q13.32 9.24 13.45 9.23L13.45 9.23L13.45 9.23Q13.93 9.17 14.14 8.88L14.14 8.88L14.14 8.87L14.14 8.87Q14.29 8.64 14.26 8.22L14.26 8.22L14.26 8.22Q14.25 8.00 14.10 7.87L14.10 7.87L14.10 7.87Q13.92 7.70 13.59 7.71L13.59 7.71L13.04 7.73L13.04 7.73Q12.95 7.74 12.89 7.74L12.89 7.74L12.89 7.74Q12.82 7.75 12.76 7.75L12.76 7.75L12.76 7.75Q12.50 7.71 12.54 7.51L12.54 7.51L12.54 7.51Q12.56 7.38 12.73 7.33L12.73 7.33L12.73 7.33Q13.04 7.31 13.33 7.33L13.33 7.33L13.33 7.33Q13.63 7.35 13.95 7.33L13.95 7.33L14.24 7.31L14.24 7.31Q14.44 7.29 14.53 7.38L14.53 7.38L14.53 7.38Q14.64 7.46 14.65 7.66L14.65 7.66L14.65 7.66Q14.67 7.87 14.67 7.98L14.67 7.98L14.67 7.98Q14.67 8.16 14.68 8.36L14.68 8.36L14.68 8.36Q14.68 8.57 14.65 8.74L14.65 8.74L14.65 8.74Q14.60 9.00 14.38 9.26ZM19.14 5.67L19.14 5.67L19.14 5.67Q19.28 5.82 19.37 5.99L19.37 5.99L19.37 5.99Q19.46 6.16 19.54 6.34L19.54 6.34L19.54 6.34Q19.64 6.54 19.60 6.74L19.60 6.74L19.60 6.74Q19.56 6.94 19.38 7.13L19.38 7.13L19.38 7.13Q19.24 7.28 18.90 7.37L18.90 7.37L18.90 7.37Q18.78 7.40 18.64 7.44L18.64 7.44L18.64 7.44Q18.50 7.48 18.44 7.60L18.44 7.60L18.44 7.60Q18.40 7.72 18.46 7.84L18.46 7.84L18.46 7.84Q18.53 7.97 18.57 8.05L18.57 8.05L18.57 8.05Q18.61 8.13 18.64 8.18L18.64 8.18L18.64 8.18Q18.68 8.24 18.73 8.33L18.73 8.33L18.73 8.33Q18.79 8.42 18.86 8.52L18.86 8.52L18.86 8.52Q19.02 8.74 19.19 8.93L19.19 8.93L19.19 8.93Q19.37 9.13 19.54 9.30L19.54 9.30L19.58 9.34L19.58 9.34Q19.73 9.49 19.58 9.63L19.58 9.63L19.58 9.63Q19.43 9.79 19.28 9.64L19.28 9.64L19.28 9.64Q19.17 9.52 19.08 9.43L19.08 9.43L19.08 9.43Q18.99 9.34 18.92 9.26L18.92 9.26L18.92 9.26Q18.75 9.05 18.61 8.83L18.61 8.83L18.61 8.83Q18.50 8.67 18.40 8.53L18.40 8.53L18.40 8.53Q18.29 8.39 18.20 8.23L18.20 8.23L18.20 8.23Q17.92 7.74 17.52 7.58L17.52 7.58L17.52 7.58Q17.09 7.42 16.89 7.70L16.89 7.70L16.89 7.70Q16.83 7.80 16.83 7.92L16.83 7.92L16.83 9.40L16.83 9.49L16.83 9.49Q16.83 9.69 16.62 9.70L16.62 9.70L16.62 9.70Q16.41 9.69 16.41 9.44L16.41 9.44L16.41 9.44Q16.41 9.28 16.42 9.12L16.42 9.12L16.42 9.12Q16.43 8.95 16.43 8.76L16.43 8.76L16.43 8.76Q16.44 8.63 16.43 8.49L16.43 8.49L16.43 8.49Q16.42 8.35 16.42 8.22L16.42 8.22L16.42 8.22Q16.42 8.09 16.43 7.96L16.43 7.96L16.43 7.96Q16.43 7.83 16.43 7.70L16.43 7.70L16.43 7.70Q16.44 7.40 16.41 7.07L16.41 7.07L16.41 7.07Q16.41 6.84 16.42 6.61L16.42 6.61L16.42 6.61Q16.43 6.38 16.43 6.14L16.43 6.14L16.43 6.14Q16.42 6.02 16.42 5.86L16.42 5.86L16.42 5.86Q16.42 5.71 16.46 5.58L16.46 5.58L16.46 5.58Q16.58 5.42 17.04 5.42L17.04 5.42L17.25 5.42L17.25 5.42Q17.50 5.42 17.75 5.44L17.75 5.44L17.75 5.44Q18.00 5.46 18.25 5.45L18.25 5.45L18.25 5.45Q18.81 5.42 19.14 5.67ZM17.22 7.15L17.22 7.15L17.22 7.15Q17.48 7.16 17.68 7.16L17.68 7.16L17.68 7.16Q17.88 7.16 18.01 7.14L18.01 7.14L18.01 7.14Q18.14 7.13 18.30 7.11L18.30 7.11L18.30 7.11Q18.46 7.09 18.66 7.05L18.66 7.05L18.66 7.05Q19.04 6.97 19.16 6.69L19.16 6.69L19.16 6.69Q19.21 6.59 19.20 6.47L19.20 6.47L19.20 6.47Q19.18 6.34 19.12 6.24L19.12 6.24L19.12 6.24Q19.05 6.14 18.95 6.07L18.95 6.07L18.95 6.07Q18.85 6.00 18.74 5.94L18.74 5.94L18.74 5.94Q18.62 5.89 18.51 5.87L18.51 5.87L18.51 5.87Q18.22 5.82 17.94 5.83L17.94 5.83L17.94 5.83Q17.66 5.84 17.37 5.82L17.37 5.82L17.37 5.82Q17.32 5.82 17.26 5.82L17.26 5.82L17.26 5.82Q17.21 5.82 17.16 5.82L17.16 5.82L17.16 5.82Q17.01 5.81 16.94 5.89L16.94 5.89L16.94 5.89Q16.88 5.96 16.89 6.08L16.89 6.08L16.89 6.08Q16.90 6.12 16.90 6.23L16.90 6.23L16.90 6.23Q16.89 6.33 16.87 6.43L16.87 6.43L16.87 6.43Q16.86 6.52 16.85 6.62L16.85 6.62L16.85 6.62Q16.81 6.88 16.91 7.01L16.91 7.01L16.91 7.01Q17.00 7.14 17.22 7.15ZM21.42 9.29L21.42 9.29L21.42 9.29Q21.41 8.87 21.41 8.46L21.41 8.46L21.41 8.46Q21.42 8.04 21.42 7.62L21.42 7.62L21.42 7.38L21.42 7.38Q21.42 7.20 21.41 7.01L21.41 7.01L21.41 7.01Q21.40 6.82 21.41 6.64L21.41 6.64L21.41 6.64Q21.42 6.43 21.42 6.23L21.42 6.23L21.42 6.23Q21.42 6.03 21.42 5.82L21.42 5.82L21.42 5.82Q21.42 5.58 21.54 5.48L21.54 5.48L21.54 5.48Q21.63 5.41 21.85 5.41L21.85 5.41L21.85 5.41Q21.97 5.41 22.06 5.40L22.06 5.40L22.06 5.40Q22.14 5.40 22.20 5.40L22.20 5.40L22.20 5.40Q22.47 5.39 22.74 5.40L22.74 5.40L22.74 5.40Q23.00 5.41 23.27 5.41L23.27 5.41L23.27 5.41Q23.41 5.40 23.56 5.40L23.56 5.40L23.56 5.40Q23.70 5.39 23.84 5.41L23.84 5.41L24.19 5.43L24.19 5.43Q24.25 5.43 24.29 5.43L24.29 5.43L24.29 5.43Q24.34 5.43 24.37 5.45L24.37 5.45L24.37 5.45Q24.51 5.52 24.51 5.66L24.51 5.66L24.51 5.66Q24.50 5.72 24.46 5.76L24.46 5.76L24.46 5.76Q24.42 5.80 24.37 5.82L24.37 5.82L24.37 5.82Q24.32 5.84 24.26 5.84L24.26 5.84L24.26 5.84Q24.21 5.85 24.17 5.85L24.17 5.85L24.17 5.85Q23.75 5.85 23.34 5.83L23.34 5.83L23.34 5.83Q23.30 5.82 23.24 5.82L23.24 5.82L23.24 5.82Q23.17 5.82 23.10 5.82L23.10 5.82L22.70 5.82L22.70 5.82Q22.54 5.82 22.42 5.83L22.42 5.83L22.42 5.83Q22.30 5.83 22.22 5.83L22.22 5.83L22.22 5.83Q22.10 5.84 22.03 5.86L22.03 5.86L22.03 5.86Q21.95 5.89 21.92 5.94L21.92 5.94L21.92 5.94Q21.86 6.02 21.88 6.15L21.88 6.15L21.88 6.15Q21.88 6.20 21.88 6.24L21.88 6.24L21.88 6.24Q21.88 6.28 21.87 6.32L21.87 6.32L21.87 6.32Q21.85 6.40 21.85 6.49L21.85 6.49L21.85 6.49Q21.84 6.58 21.85 6.69L21.85 6.69L21.85 6.69Q21.85 6.88 22.00 7.01L22.00 7.01L22.00 7.01Q22.12 7.12 22.44 7.10L22.44 7.10L22.44 7.10Q22.59 7.10 22.73 7.08L22.73 7.08L22.73 7.08Q22.87 7.06 23.01 7.07L23.01 7.07L23.01 7.07Q23.07 7.07 23.17 7.07L23.17 7.07L23.17 7.07Q23.27 7.08 23.41 7.07L23.41 7.07L23.41 7.07Q23.68 7.06 23.78 7.16L23.78 7.16L23.78 7.16Q23.81 7.21 23.80 7.32L23.80 7.32L23.80 7.32Q23.78 7.44 23.61 7.47L23.61 7.47L23.61 7.47Q23.45 7.50 23.36 7.50L23.36 7.50L23.36 7.50Q23.24 7.51 23.12 7.50L23.12 7.50L23.12 7.50Q23.00 7.50 22.87 7.51L22.87 7.51L22.87 7.51Q22.72 7.52 22.57 7.51L22.57 7.51L22.57 7.51Q22.41 7.51 22.24 7.49L22.24 7.49L22.24 7.49Q22.22 7.49 22.19 7.49L22.19 7.49L22.19 7.49Q22.16 7.49 22.14 7.49L22.14 7.49L22.13 7.49L22.13 7.49Q22.06 7.47 21.98 7.52L21.98 7.52L21.98 7.52Q21.86 7.59 21.85 7.78L21.85 7.78L21.85 7.78Q21.83 7.96 21.85 8.09L21.85 8.09L21.85 8.09Q21.85 8.16 21.86 8.22L21.86 8.22L21.86 8.22Q21.86 8.29 21.85 8.33L21.85 8.33L21.85 8.33Q21.84 8.44 21.83 8.53L21.83 8.53L21.83 8.53Q21.82 8.63 21.81 8.74L21.81 8.74L21.81 8.74Q21.79 9.00 21.88 9.13L21.88 9.13L21.88 9.13Q21.99 9.28 22.28 9.28L22.28 9.28L22.28 9.28Q22.50 9.28 22.74 9.27L22.74 9.27L22.74 9.27Q22.97 9.26 23.20 9.25L23.20 9.25L23.20 9.25Q23.41 9.24 23.64 9.26L23.64 9.26L23.64 9.26Q23.86 9.28 24.08 9.28L24.08 9.28L24.08 9.28Q24.16 9.28 24.29 9.28L24.29 9.28L24.29 9.28Q24.43 9.28 24.51 9.32L24.51 9.32L24.51 9.32Q24.58 9.36 24.58 9.44L24.58 9.44L24.58 9.44Q24.66 9.69 24.37 9.70L24.37 9.70L24.37 9.70Q23.92 9.72 23.48 9.71L23.48 9.71L23.48 9.71Q23.05 9.71 22.61 9.71L22.61 9.71L22.61 9.71Q22.59 9.71 22.56 9.72L22.56 9.72L22.56 9.72Q22.54 9.72 22.52 9.72L22.52 9.72L22.52 9.72Q22.36 9.72 22.25 9.72L22.25 9.72L22.25 9.72Q22.13 9.72 22.06 9.71L22.06 9.71L22.06 9.71Q22.01 9.71 21.95 9.71L21.95 9.71L21.95 9.71Q21.88 9.71 21.80 9.70L21.80 9.70L21.80 9.70Q21.73 9.69 21.69 9.69L21.69 9.69L21.69 9.69Q21.64 9.68 21.62 9.67L21.62 9.67L21.62 9.67Q21.42 9.61 21.42 9.29ZM29.72 9.26L29.72 9.26L29.72 9.26Q29.21 9.71 28.50 9.75L28.50 9.75L28.50 9.75Q27.81 9.78 27.19 9.53L27.19 9.53L27.19 9.52L27.17 9.52L27.17 9.52Q27.07 9.49 26.88 9.33L26.88 9.33L26.88 9.33Q26.69 9.17 26.63 9.08L26.63 9.08L26.63 9.08Q26.53 8.95 26.45 8.78L26.45 8.78L26.45 8.78Q26.37 8.61 26.29 8.45L26.29 8.45L26.29 8.45Q26.14 8.16 26.13 7.95L26.13 7.95L26.13 7.95Q26.12 7.85 26.12 7.71L26.12 7.71L26.12 7.71Q26.13 7.58 26.14 7.41L26.14 7.41L26.14 7.41Q26.20 6.66 26.61 6.02L26.61 6.02L26.61 6.02Q26.65 5.97 26.74 5.89L26.74 5.89L26.74 5.89Q26.84 5.81 26.99 5.73L26.99 5.73L26.99 5.73Q27.30 5.56 27.52 5.49L27.52 5.49L27.52 5.49Q27.67 5.44 27.84 5.42L27.84 5.42L27.84 5.42Q28.25 5.37 28.68 5.42L28.68 5.42L28.68 5.42Q29.11 5.48 29.48 5.69L29.48 5.69L29.48 5.69Q29.54 5.72 29.60 5.77L29.60 5.77L29.60 5.77Q29.67 5.82 29.76 5.89L29.76 5.89L29.76 5.89Q29.93 6.02 29.95 6.15L29.95 6.15L29.95 6.15Q29.96 6.21 29.91 6.27L29.91 6.27L29.91 6.27Q29.83 6.36 29.76 6.36L29.76 6.36L29.76 6.36Q29.68 6.36 29.59 6.30L29.59 6.30L29.59 6.30Q29.49 6.23 29.44 6.19L29.44 6.19L29.44 6.19Q29.32 6.12 29.25 6.07L29.25 6.07L29.25 6.07Q29.18 6.02 29.16 6.01L29.16 6.01L29.16 6.01Q28.81 5.82 28.31 5.82L28.31 5.82L28.31 5.82Q28.20 5.82 28.06 5.83L28.06 5.83L28.06 5.83Q27.92 5.84 27.77 5.87L27.77 5.87L27.75 5.87L27.74 5.88L27.74 5.88Q26.87 6.13 26.61 7.06L26.61 7.06L26.61 7.06Q26.52 7.40 26.57 7.70L26.57 7.70L26.57 7.70Q26.63 8.00 26.71 8.31L26.71 8.31L26.71 8.31Q26.84 8.79 27.14 9.00L27.14 9.00L27.14 9.00Q27.44 9.21 27.90 9.30L27.90 9.30L27.90 9.30L27.90 9.30Q28.03 9.32 28.13 9.32L28.13 9.32L28.13 9.32Q28.24 9.32 28.34 9.30L28.34 9.30L28.34 9.30Q28.44 9.28 28.55 9.26L28.55 9.26L28.55 9.26Q28.66 9.24 28.78 9.23L28.78 9.23L28.78 9.23Q29.26 9.17 29.47 8.88L29.47 8.88L29.47 8.87L29.47 8.87Q29.62 8.64 29.59 8.22L29.59 8.22L29.59 8.22Q29.59 8.00 29.44 7.87L29.44 7.87L29.44 7.87Q29.25 7.70 28.92 7.71L28.92 7.71L28.38 7.73L28.38 7.73Q28.29 7.74 28.22 7.74L28.22 7.74L28.22 7.74Q28.15 7.75 28.10 7.75L28.10 7.75L28.10 7.75Q27.84 7.71 27.87 7.51L27.87 7.51L27.87 7.51Q27.89 7.38 28.06 7.33L28.06 7.33L28.06 7.33Q28.37 7.31 28.67 7.33L28.67 7.33L28.67 7.33Q28.96 7.35 29.28 7.33L29.28 7.33L29.57 7.31L29.57 7.31Q29.77 7.29 29.87 7.38L29.87 7.38L29.87 7.38Q29.98 7.46 29.98 7.66L29.98 7.66L29.98 7.66Q30.00 7.87 30.00 7.98L30.00 7.98L30.00 7.98Q30.00 8.16 30.01 8.36L30.01 8.36L30.01 8.36Q30.02 8.57 29.98 8.74L29.98 8.74L29.98 8.74Q29.93 9.00 29.72 9.26ZM35.64 9.47L35.64 9.47L35.64 9.47Q35.64 9.65 35.50 9.69L35.50 9.69L35.50 9.69Q35.38 9.75 35.28 9.61L35.28 9.61L35.28 9.61Q35.23 9.54 35.20 9.49L35.20 9.49L35.20 9.49Q35.17 9.43 35.15 9.39L35.15 9.39L35.15 9.39Q35.05 9.18 34.98 9.03L34.98 9.03L34.98 9.03Q34.90 8.87 34.83 8.78L34.83 8.78L34.83 8.78Q34.67 8.55 34.47 8.49L34.47 8.49L34.47 8.49Q34.30 8.44 33.92 8.48L33.92 8.48L33.92 8.48Q33.70 8.50 33.51 8.51L33.51 8.51L33.51 8.51Q33.31 8.52 33.13 8.50L33.13 8.50L33.13 8.50Q32.74 8.48 32.55 8.76L32.55 8.76L32.53 8.78L32.53 8.79L32.53 8.79Q32.46 8.93 32.41 9.06L32.41 9.06L32.41 9.06Q32.37 9.19 32.31 9.32L32.31 9.32L32.16 9.54L32.16 9.54Q32.07 9.69 31.96 9.70L31.96 9.70L31.96 9.70Q31.92 9.72 31.83 9.65L31.83 9.65L31.83 9.65Q31.79 9.60 31.78 9.55L31.78 9.55L31.78 9.55Q31.77 9.49 31.78 9.43L31.78 9.43L31.78 9.43Q31.79 9.37 31.81 9.30L31.81 9.30L31.81 9.30Q31.83 9.24 31.86 9.19L31.86 9.19L32.02 8.85L32.02 8.85Q32.26 8.35 32.47 7.85L32.47 7.85L32.47 7.85Q32.68 7.34 32.91 6.83L32.91 6.83L32.91 6.83Q32.95 6.74 32.98 6.66L32.98 6.66L32.98 6.66Q33.01 6.58 33.04 6.51L33.04 6.51L33.04 6.51Q33.12 6.32 33.20 6.14L33.20 6.14L33.20 6.14Q33.27 5.95 33.37 5.76L33.37 5.76L33.47 5.61L33.47 5.61Q33.54 5.48 33.61 5.48L33.61 5.48L33.61 5.48Q33.68 5.46 33.79 5.59L33.79 5.59L33.79 5.59Q33.91 5.73 34.01 5.91L34.01 5.91L34.01 5.91Q34.12 6.10 34.19 6.26L34.19 6.26L34.19 6.26Q34.43 6.77 34.64 7.28L34.64 7.28L34.64 7.28Q34.85 7.79 35.09 8.28L35.09 8.28L35.09 8.28Q35.16 8.43 35.24 8.58L35.24 8.58L35.24 8.58Q35.31 8.74 35.39 8.88L35.39 8.88L35.39 8.88Q35.43 8.98 35.48 9.08L35.48 9.08L35.48 9.08Q35.52 9.17 35.56 9.27L35.56 9.27L35.56 9.27Q35.59 9.34 35.62 9.39L35.62 9.39L35.62 9.39Q35.64 9.44 35.64 9.47ZM34.29 7.56L34.29 7.56L34.29 7.56Q34.22 7.40 34.16 7.22L34.16 7.22L34.16 7.22Q34.09 7.05 34.00 6.88L34.00 6.88L34.00 6.88Q33.84 6.57 33.64 6.58L33.64 6.58L33.64 6.58Q33.56 6.58 33.51 6.62L33.51 6.62L33.51 6.62Q33.45 6.67 33.41 6.72L33.41 6.72L33.41 6.72Q33.37 6.78 33.33 6.85L33.33 6.85L33.33 6.85Q33.30 6.92 33.28 6.98L33.28 6.98L33.28 6.98Q33.20 7.18 33.13 7.40L33.13 7.40L33.13 7.40Q33.07 7.62 33.00 7.83L33.00 7.83L33.00 7.83Q32.96 7.98 33.02 8.05L33.02 8.05L33.02 8.05Q33.06 8.12 33.23 8.13L33.23 8.13L33.23 8.13Q33.38 8.14 33.50 8.15L33.50 8.15L33.50 8.15Q33.61 8.15 33.69 8.14L33.69 8.14L33.69 8.14Q33.84 8.14 34.08 8.10L34.08 8.10L34.08 8.10Q34.34 8.06 34.38 7.88L34.38 7.88L34.38 7.88Q34.41 7.77 34.36 7.69L34.36 7.69L34.36 7.69Q34.34 7.66 34.32 7.63L34.32 7.63L34.32 7.63Q34.30 7.59 34.29 7.56ZM40.24 5.75L40.24 5.75L40.24 5.75Q40.15 5.86 39.93 5.84L39.93 5.84L39.59 5.82L39.59 5.82Q39.48 5.82 39.39 5.81L39.39 5.81L39.39 5.81Q39.29 5.80 39.19 5.80L39.19 5.80L39.19 5.80Q38.99 5.80 38.89 5.89L38.89 5.89L38.89 5.89Q38.81 5.98 38.81 6.19L38.81 6.19L38.81 6.19Q38.81 6.28 38.82 6.37L38.82 6.37L38.82 6.37Q38.83 6.47 38.83 6.56L38.83 6.56L38.83 6.56Q38.84 6.79 38.85 6.96L38.85 6.96L38.85 6.96Q38.85 7.12 38.85 7.24L38.85 7.24L38.85 7.24Q38.85 7.59 38.81 7.94L38.81 7.94L38.81 7.94Q38.79 8.10 38.81 8.26L38.81 8.26L38.81 8.26Q38.83 8.43 38.83 8.59L38.83 8.59L38.83 8.59Q38.84 8.76 38.85 8.89L38.85 8.89L38.85 8.89Q38.85 9.02 38.85 9.11L38.85 9.11L38.85 9.11Q38.85 9.15 38.85 9.20L38.85 9.20L38.85 9.20Q38.85 9.26 38.84 9.35L38.84 9.35L38.84 9.35Q38.83 9.54 38.81 9.58L38.81 9.58L38.81 9.58Q38.73 9.73 38.58 9.69L38.58 9.69L38.58 9.69Q38.40 9.65 38.40 9.43L38.40 9.43L38.40 9.43Q38.40 9.22 38.41 9.01L38.41 9.01L38.41 9.01Q38.43 8.80 38.45 8.60L38.45 8.60L38.45 8.60Q38.47 8.36 38.44 8.11L38.44 8.11L38.44 8.11Q38.42 7.87 38.42 7.62L38.42 7.62L38.42 7.62Q38.42 7.40 38.44 7.17L38.44 7.17L38.44 7.17Q38.45 6.94 38.46 6.71L38.46 6.71L38.46 6.71Q38.46 6.27 38.32 6.08L38.32 6.08L38.32 6.08Q38.24 5.99 38.13 5.94L38.13 5.94L38.13 5.94Q38.03 5.89 37.90 5.87L37.90 5.87L37.90 5.87Q37.77 5.86 37.66 5.85L37.66 5.85L37.66 5.85Q37.54 5.84 37.43 5.84L37.43 5.84L37.43 5.84Q37.35 5.84 37.23 5.84L37.23 5.84L37.23 5.84Q37.10 5.84 37.03 5.80L37.03 5.80L37.03 5.80Q36.98 5.77 36.96 5.67L36.96 5.67L36.96 5.67Q36.95 5.59 36.98 5.54L36.98 5.54L36.98 5.54Q37.03 5.46 37.22 5.43L37.22 5.43L37.22 5.43Q37.24 5.43 37.30 5.43L37.30 5.43L37.30 5.43Q37.58 5.42 37.85 5.45L37.85 5.45L37.85 5.45Q38.12 5.48 38.41 5.46L38.41 5.46L38.41 5.46Q38.53 5.46 38.64 5.44L38.64 5.44L38.64 5.44Q38.75 5.43 38.88 5.43L38.88 5.43L38.88 5.43Q39.10 5.43 39.33 5.43L39.33 5.43L39.33 5.43Q39.56 5.43 39.79 5.42L39.79 5.42L39.79 5.42Q39.90 5.42 39.99 5.43L39.99 5.43L39.99 5.43Q40.07 5.43 40.13 5.46L40.13 5.46L40.13 5.46Q40.35 5.61 40.24 5.75ZM41.96 9.29L41.96 9.29L41.96 9.29Q41.95 8.87 41.96 8.46L41.96 8.46L41.96 8.46Q41.96 8.04 41.96 7.62L41.96 7.62L41.96 7.38L41.96 7.38Q41.96 7.20 41.95 7.01L41.95 7.01L41.95 7.01Q41.94 6.82 41.95 6.64L41.95 6.64L41.95 6.64Q41.96 6.43 41.96 6.23L41.96 6.23L41.96 6.23Q41.96 6.03 41.97 5.82L41.97 5.82L41.97 5.82Q41.97 5.58 42.08 5.48L42.08 5.48L42.08 5.48Q42.17 5.41 42.40 5.41L42.40 5.41L42.40 5.41Q42.51 5.41 42.60 5.40L42.60 5.40L42.60 5.40Q42.68 5.40 42.75 5.40L42.75 5.40L42.75 5.40Q43.01 5.39 43.28 5.40L43.28 5.40L43.28 5.40Q43.54 5.41 43.81 5.41L43.81 5.41L43.81 5.41Q43.96 5.40 44.10 5.40L44.10 5.40L44.10 5.40Q44.24 5.39 44.38 5.41L44.38 5.41L44.73 5.43L44.73 5.43Q44.79 5.43 44.83 5.43L44.83 5.43L44.83 5.43Q44.88 5.43 44.91 5.45L44.91 5.45L44.91 5.45Q45.06 5.52 45.05 5.66L45.05 5.66L45.05 5.66Q45.04 5.72 45.00 5.76L45.00 5.76L45.00 5.76Q44.96 5.80 44.91 5.82L44.91 5.82L44.91 5.82Q44.86 5.84 44.80 5.84L44.80 5.84L44.80 5.84Q44.75 5.85 44.71 5.85L44.71 5.85L44.71 5.85Q44.29 5.85 43.88 5.83L43.88 5.83L43.88 5.83Q43.84 5.82 43.78 5.82L43.78 5.82L43.78 5.82Q43.72 5.82 43.64 5.82L43.64 5.82L43.24 5.82L43.24 5.82Q43.09 5.82 42.96 5.83L42.96 5.83L42.96 5.83Q42.84 5.83 42.76 5.83L42.76 5.83L42.76 5.83Q42.64 5.84 42.57 5.86L42.57 5.86L42.57 5.86Q42.49 5.89 42.46 5.94L42.46 5.94L42.46 5.94Q42.40 6.02 42.42 6.15L42.42 6.15L42.42 6.15Q42.42 6.20 42.42 6.24L42.42 6.24L42.42 6.24Q42.42 6.28 42.41 6.32L42.41 6.32L42.41 6.32Q42.40 6.40 42.39 6.49L42.39 6.49L42.39 6.49Q42.38 6.58 42.39 6.69L42.39 6.69L42.39 6.69Q42.39 6.88 42.54 7.01L42.54 7.01L42.54 7.01Q42.66 7.12 42.98 7.10L42.98 7.10L42.98 7.10Q43.13 7.10 43.27 7.08L43.27 7.08L43.27 7.08Q43.41 7.06 43.55 7.07L43.55 7.07L43.55 7.07Q43.61 7.07 43.71 7.07L43.71 7.07L43.71 7.07Q43.81 7.08 43.95 7.07L43.95 7.07L43.95 7.07Q44.22 7.06 44.32 7.16L44.32 7.16L44.32 7.16Q44.35 7.21 44.34 7.32L44.34 7.32L44.34 7.32Q44.32 7.44 44.15 7.47L44.15 7.47L44.15 7.47Q44.00 7.50 43.90 7.50L43.90 7.50L43.90 7.50Q43.78 7.51 43.66 7.50L43.66 7.50L43.66 7.50Q43.54 7.50 43.42 7.51L43.42 7.51L43.42 7.51Q43.26 7.52 43.11 7.51L43.11 7.51L43.11 7.51Q42.95 7.51 42.78 7.49L42.78 7.49L42.78 7.49Q42.76 7.49 42.73 7.49L42.73 7.49L42.73 7.49Q42.70 7.49 42.68 7.49L42.68 7.49L42.68 7.49L42.68 7.49Q42.60 7.47 42.53 7.52L42.53 7.52L42.53 7.52Q42.40 7.59 42.39 7.78L42.39 7.78L42.39 7.78Q42.38 7.96 42.39 8.09L42.39 8.09L42.39 8.09Q42.40 8.16 42.40 8.22L42.40 8.22L42.40 8.22Q42.40 8.29 42.40 8.33L42.40 8.33L42.40 8.33Q42.38 8.44 42.37 8.53L42.37 8.53L42.37 8.53Q42.36 8.63 42.35 8.74L42.35 8.74L42.35 8.74Q42.33 9.00 42.42 9.13L42.42 9.13L42.42 9.13Q42.53 9.28 42.82 9.28L42.82 9.28L42.82 9.28Q43.05 9.28 43.28 9.27L43.28 9.27L43.28 9.27Q43.51 9.26 43.74 9.25L43.74 9.25L43.74 9.25Q43.96 9.24 44.18 9.26L44.18 9.26L44.18 9.26Q44.40 9.28 44.62 9.28L44.62 9.28L44.62 9.28Q44.70 9.28 44.84 9.28L44.84 9.28L44.84 9.28Q44.97 9.28 45.05 9.32L45.05 9.32L45.05 9.32Q45.12 9.36 45.12 9.44L45.12 9.44L45.12 9.44Q45.20 9.69 44.91 9.70L44.91 9.70L44.91 9.70Q44.46 9.72 44.03 9.71L44.03 9.71L44.03 9.71Q43.59 9.71 43.16 9.71L43.16 9.71L43.16 9.71Q43.13 9.71 43.10 9.72L43.10 9.72L43.10 9.72Q43.08 9.72 43.06 9.72L43.06 9.72L43.06 9.72Q42.90 9.72 42.79 9.72L42.79 9.72L42.79 9.72Q42.68 9.72 42.60 9.71L42.60 9.71L42.60 9.71Q42.55 9.71 42.49 9.71L42.49 9.71L42.49 9.71Q42.42 9.71 42.34 9.70L42.34 9.70L42.34 9.70Q42.27 9.69 42.23 9.69L42.23 9.69L42.23 9.69Q42.18 9.68 42.16 9.67L42.16 9.67L42.16 9.67Q41.96 9.61 41.96 9.29ZM52.85 5.56L52.85 5.56L52.85 5.56Q52.92 5.54 53.07 5.58L53.07 5.58L53.07 5.58Q53.23 5.62 53.27 5.68L53.27 5.68L53.27 5.68Q53.27 5.69 53.27 5.69L53.27 5.69L53.27 5.69Q53.29 5.89 53.29 6.28L53.29 6.28L53.29 6.79L53.29 6.79Q53.30 7 53.31 7.19L53.31 7.19L53.31 7.19Q53.31 7.38 53.30 7.58L53.30 7.58L53.30 7.58Q53.29 7.78 53.27 7.97L53.27 7.97L53.27 7.97Q53.26 8.16 53.27 8.35L53.27 8.35L53.27 8.35Q53.28 8.52 53.29 8.68L53.29 8.68L53.29 8.68Q53.31 8.84 53.29 9.00L53.29 9.00L53.27 9.32L53.27 9.32Q53.26 9.55 53.22 9.60L53.22 9.60L53.22 9.60Q53.15 9.71 53.05 9.71L53.05 9.71L53.05 9.71Q52.83 9.69 52.82 9.39L52.82 9.39L52.82 9.39Q52.80 8.95 52.82 8.51L52.82 8.51L52.82 8.51Q52.85 8.07 52.81 7.62L52.81 7.62L52.79 7.32L52.79 7.32Q52.78 7.10 52.61 7.08L52.61 7.08L52.61 7.08Q52.54 7.08 52.49 7.10L52.49 7.10L52.49 7.10Q52.45 7.13 52.41 7.18L52.41 7.18L52.41 7.18Q52.38 7.23 52.36 7.28L52.36 7.28L52.36 7.28Q52.34 7.34 52.32 7.39L52.32 7.39L52.32 7.39Q52.26 7.53 52.22 7.64L52.22 7.64L52.22 7.64Q52.17 7.75 52.14 7.83L52.14 7.83L52.14 7.83Q52.08 7.97 51.99 8.12L51.99 8.12L51.99 8.12Q51.90 8.26 51.82 8.40L51.82 8.40L51.82 8.40Q51.75 8.55 51.68 8.69L51.68 8.69L51.68 8.69Q51.60 8.82 51.54 8.96L51.54 8.96L51.54 8.96Q51.49 9.04 51.28 9.03L51.28 9.03L51.28 9.03Q51.14 9.03 51.07 8.95L51.07 8.95L51.07 8.95Q51.02 8.89 50.96 8.77L50.96 8.77L50.96 8.77Q50.90 8.66 50.83 8.49L50.83 8.49L50.83 8.49Q50.77 8.37 50.73 8.29L50.73 8.29L50.73 8.29Q50.68 8.20 50.65 8.15L50.65 8.15L50.65 8.15Q50.61 8.10 50.57 8.00L50.57 8.00L50.57 8.00Q50.52 7.90 50.44 7.74L50.44 7.74L50.26 7.35L50.26 7.35Q50.22 7.28 50.20 7.25L50.20 7.25L50.20 7.25Q50.18 7.21 50.17 7.20L50.17 7.20L50.17 7.20Q50.07 7.07 49.94 7.10L49.94 7.10L49.94 7.10Q49.77 7.12 49.77 7.40L49.77 7.40L49.77 7.40Q49.77 7.84 49.77 8.23L49.77 8.23L49.77 8.23Q49.78 8.61 49.79 8.96L49.79 8.96L49.79 8.96Q49.79 9.01 49.79 9.10L49.79 9.10L49.79 9.10Q49.79 9.18 49.79 9.30L49.79 9.30L49.79 9.30Q49.77 9.55 49.73 9.61L49.73 9.61L49.73 9.61Q49.66 9.71 49.53 9.70L49.53 9.70L49.53 9.70Q49.34 9.69 49.34 9.43L49.34 9.43L49.34 9.43Q49.34 9.13 49.33 8.82L49.33 8.82L49.33 8.82Q49.32 8.51 49.31 8.18L49.31 8.18L49.31 8.18Q49.31 8.03 49.31 7.90L49.31 7.90L49.31 7.90Q49.31 7.77 49.33 7.68L49.33 7.68L49.33 7.68Q49.35 7.51 49.35 7.38L49.35 7.38L49.35 7.38Q49.36 7.25 49.35 7.16L49.35 7.16L49.35 7.16Q49.34 7.05 49.33 6.93L49.33 6.93L49.33 6.93Q49.31 6.80 49.29 6.66L49.29 6.66L49.29 6.66Q49.27 6.46 49.30 6.18L49.30 6.18L49.30 6.18Q49.33 5.89 49.38 5.70L49.38 5.70L49.38 5.70Q49.40 5.62 49.42 5.58L49.42 5.58L49.42 5.58Q49.62 5.38 49.80 5.63L49.80 5.63L49.80 5.63Q49.88 5.73 49.94 5.84L49.94 5.84L49.94 5.84Q50.01 5.95 50.09 6.06L50.09 6.06L50.09 6.06Q50.20 6.22 50.28 6.41L50.28 6.41L50.28 6.41Q50.36 6.60 50.44 6.77L50.44 6.77L50.44 6.77Q50.52 6.95 50.59 7.09L50.59 7.09L50.59 7.09Q50.65 7.22 50.71 7.30L50.71 7.30L50.74 7.34L50.74 7.34Q50.81 7.46 50.87 7.58L50.87 7.58L50.87 7.58Q50.92 7.70 50.98 7.81L50.98 7.81L50.98 7.81Q51.13 8.13 51.28 8.14L51.28 8.14L51.28 8.14Q51.44 8.14 51.51 8.00L51.51 8.00L51.51 8.00Q51.54 7.93 51.57 7.86L51.57 7.86L51.57 7.86Q51.60 7.79 51.63 7.73L51.63 7.73L51.63 7.73Q51.67 7.62 51.74 7.49L51.74 7.49L51.74 7.49Q51.80 7.36 51.88 7.23L51.88 7.23L51.88 7.23Q52.02 6.99 52.17 6.75L52.17 6.75L52.17 6.75Q52.32 6.51 52.45 6.24L52.45 6.24L52.45 6.24Q52.48 6.16 52.53 6.06L52.53 6.06L52.53 6.06Q52.59 5.97 52.65 5.87L52.65 5.87L52.78 5.67L52.78 5.67Q52.79 5.65 52.80 5.63L52.80 5.63L52.80 5.63Q52.82 5.60 52.85 5.56ZM56.59 9.69L56.59 9.69L56.59 9.69Q56.46 9.65 56.32 9.58L56.32 9.58L56.32 9.58Q56.18 9.52 56.04 9.43L56.04 9.43L56.04 9.43Q55.91 9.34 55.79 9.24L55.79 9.24L55.79 9.24Q55.68 9.13 55.60 9.01L55.60 9.01L55.60 9.01Q55.49 8.84 55.44 8.66L55.44 8.66L55.44 8.66Q55.39 8.48 55.30 8.29L55.30 8.29L55.30 8.29Q55.23 8.13 55.23 7.96L55.23 7.96L55.23 7.96Q55.22 7.88 55.21 7.79L55.21 7.79L55.21 7.79Q55.20 7.70 55.20 7.62L55.20 7.62L55.20 7.62Q55.19 7.54 55.19 7.48L55.19 7.48L55.19 7.48Q55.19 7.42 55.19 7.38L55.19 7.38L55.19 7.38Q55.19 7.25 55.20 7.11L55.20 7.11L55.20 7.11Q55.22 6.97 55.25 6.82L55.25 6.82L55.25 6.82Q55.26 6.77 55.30 6.69L55.30 6.69L55.30 6.69Q55.36 6.49 55.47 6.31L55.47 6.31L55.47 6.31Q55.58 6.13 55.71 5.97L55.71 5.97L55.71 5.97Q55.98 5.67 56.46 5.43L56.46 5.43L56.46 5.43Q56.68 5.34 56.92 5.35L56.92 5.35L56.92 5.35Q57.07 5.36 57.22 5.39L57.22 5.39L57.22 5.39Q57.34 5.41 57.43 5.42L57.43 5.42L57.43 5.42Q57.52 5.43 57.59 5.44L57.59 5.44L57.59 5.44Q58.12 5.50 58.52 5.91L58.52 5.91L58.52 5.91Q58.61 6.00 58.69 6.10L58.69 6.10L58.69 6.10Q58.77 6.21 58.84 6.33L58.84 6.33L58.88 6.38L58.88 6.38Q58.88 6.41 58.89 6.42L58.89 6.42L58.89 6.42Q58.90 6.43 58.91 6.45L58.91 6.45L58.91 6.45Q59.02 6.72 59.12 7.13L59.12 7.13L59.12 7.13Q59.21 7.51 59.14 7.83L59.14 7.83L59.14 7.83Q59.10 8.02 59.04 8.19L59.04 8.19L59.04 8.19Q58.98 8.36 58.93 8.53L58.93 8.53L58.93 8.53Q58.67 9.45 57.73 9.69L57.73 9.69L57.67 9.70L57.67 9.70Q57.62 9.71 57.54 9.73L57.54 9.73L57.54 9.73Q57.46 9.74 57.35 9.75L57.35 9.75L57.35 9.75Q57.17 9.78 56.98 9.76L56.98 9.76L56.98 9.76Q56.79 9.75 56.59 9.69ZM57.29 5.78L57.29 5.78L57.29 5.78Q56.92 5.78 56.62 5.87L56.62 5.87L56.62 5.87Q56.32 5.95 56.08 6.19L56.08 6.19L56.08 6.19Q55.75 6.52 55.67 6.92L55.67 6.92L55.67 6.92Q55.58 7.32 55.67 7.81L55.67 7.81L55.73 8.15L55.73 8.15Q55.75 8.24 55.76 8.30L55.76 8.30L55.76 8.30Q55.77 8.36 55.78 8.37L55.78 8.37L55.78 8.37Q55.82 8.52 55.95 8.66L55.95 8.66L55.95 8.66Q56.07 8.80 56.17 8.90L56.17 8.90L56.17 8.90Q56.23 8.96 56.28 9.02L56.28 9.02L56.28 9.02Q56.33 9.08 56.40 9.13L56.40 9.13L56.40 9.13Q56.50 9.21 56.74 9.29L56.74 9.29L56.75 9.29L56.75 9.29Q56.88 9.32 57.04 9.31L57.04 9.31L57.04 9.31Q57.20 9.30 57.39 9.26L57.39 9.26L57.39 9.26Q57.49 9.23 57.59 9.22L57.59 9.22L57.59 9.22Q57.69 9.21 57.79 9.18L57.79 9.18L57.79 9.18Q58.04 9.12 58.21 8.91L58.21 8.91L58.22 8.91L58.22 8.90L58.22 8.90Q58.33 8.77 58.41 8.57L58.41 8.57L58.41 8.57Q58.47 8.37 58.51 8.32L58.51 8.32L58.51 8.32Q58.85 7.65 58.61 6.87L58.61 6.87L58.60 6.86L58.60 6.86Q58.58 6.79 58.55 6.72L58.55 6.72L58.55 6.72Q58.52 6.65 58.47 6.58L58.47 6.58L58.47 6.58Q58.21 6.18 57.84 6.00L57.84 6.00L57.84 6.00Q57.83 6.00 57.78 5.97L57.78 5.97L57.78 5.97Q57.73 5.94 57.64 5.89L57.64 5.89L57.64 5.89Q57.52 5.81 57.29 5.78L57.29 5.78ZM61.37 9.56L61.37 9.56L61.37 9.56Q61.34 9.68 61.15 9.70L61.15 9.70L61.15 9.70Q60.96 9.69 60.96 9.49L60.96 9.49L60.96 9.49Q60.96 8.96 60.94 8.41L60.94 8.41L60.94 8.41Q60.92 7.87 60.97 7.33L60.97 7.33L60.97 7.33L60.97 7.33Q60.97 7.17 60.97 7.02L60.97 7.02L60.97 7.02Q60.98 6.87 60.96 6.73L60.96 6.73L60.91 6.21L60.91 6.21Q60.89 5.99 60.98 5.74L60.98 5.74L60.98 5.74Q61.04 5.56 61.16 5.52L61.16 5.52L61.16 5.52Q61.26 5.50 61.36 5.62L61.36 5.62L61.36 5.62Q61.46 5.72 61.50 5.80L61.50 5.80L61.50 5.80Q61.59 5.93 61.68 6.03L61.68 6.03L61.68 6.03Q61.78 6.13 61.87 6.22L61.87 6.22L61.87 6.22Q61.94 6.31 62.02 6.37L62.02 6.37L62.02 6.37Q62.10 6.44 62.17 6.52L62.17 6.52L62.17 6.52Q62.24 6.59 62.32 6.70L62.32 6.70L62.32 6.70Q62.41 6.80 62.50 6.95L62.50 6.95L62.80 7.41L62.80 7.41Q62.84 7.46 62.87 7.52L62.87 7.52L62.87 7.52Q62.91 7.58 62.97 7.66L62.97 7.66L62.97 7.67L62.97 7.67Q63.12 7.86 63.27 8.03L63.27 8.03L63.27 8.03Q63.35 8.11 63.42 8.19L63.42 8.19L63.42 8.19Q63.50 8.26 63.58 8.33L63.58 8.33L63.58 8.33Q63.66 8.42 63.76 8.39L63.76 8.39L63.76 8.39Q63.92 8.35 63.91 8.07L63.91 8.07L63.91 8.07Q63.91 8.00 63.90 7.93L63.90 7.93L63.90 7.93Q63.89 7.85 63.89 7.78L63.89 7.78L63.89 7.78Q63.88 7.72 63.88 7.67L63.88 7.67L63.88 7.67Q63.87 7.62 63.87 7.56L63.87 7.56L63.87 7.56Q63.87 7.53 63.86 7.50L63.86 7.50L63.86 7.50Q63.86 7.46 63.86 7.42L63.86 7.42L63.86 7.42Q63.89 6.82 63.82 6.30L63.82 6.30L63.82 6.30Q63.81 6.27 63.81 6.19L63.81 6.19L63.81 6.19Q63.81 6.11 63.83 5.99L63.83 5.99L63.83 5.99Q63.83 5.84 63.87 5.67L63.87 5.67L63.87 5.67Q63.89 5.42 64.09 5.42L64.09 5.42L64.09 5.42Q64.31 5.42 64.31 5.68L64.31 5.68L64.31 5.68Q64.31 5.89 64.32 6.11L64.32 6.11L64.32 6.11Q64.33 6.32 64.33 6.54L64.33 6.54L64.33 6.54Q64.34 6.85 64.32 7.16L64.32 7.16L64.32 7.16Q64.30 7.48 64.31 7.79L64.31 7.79L64.31 7.79Q64.33 8.00 64.32 8.21L64.32 8.21L64.32 8.21Q64.32 8.42 64.31 8.62L64.31 8.62L64.31 8.62Q64.31 8.74 64.32 8.85L64.32 8.85L64.32 8.85Q64.32 8.96 64.32 9.06L64.32 9.06L64.32 9.34L64.32 9.34Q64.31 9.38 64.31 9.42L64.31 9.42L64.31 9.42Q64.31 9.46 64.31 9.50L64.31 9.50L64.31 9.50Q64.30 9.50 64.30 9.51L64.30 9.51L64.30 9.51Q64.30 9.52 64.29 9.52L64.29 9.52L64.29 9.52Q64.22 9.62 64.06 9.62L64.06 9.62L64.06 9.62Q63.88 9.63 63.78 9.50L63.78 9.50L63.78 9.50Q63.68 9.37 63.59 9.22L63.59 9.22L63.59 9.22Q63.51 9.07 63.40 8.93L63.40 8.93L63.40 8.93Q63.28 8.76 63.13 8.58L63.13 8.58L63.13 8.58Q62.99 8.39 62.81 8.18L62.81 8.18L62.81 8.18Q62.74 8.10 62.62 7.90L62.62 7.90L62.38 7.52L62.38 7.52Q62.29 7.38 62.20 7.24L62.20 7.24L62.20 7.24Q62.11 7.10 62.02 6.97L62.02 6.97L62.02 6.97Q61.97 6.92 61.93 6.87L61.93 6.87L61.93 6.87Q61.88 6.81 61.82 6.77L61.82 6.77L61.82 6.77Q61.77 6.73 61.70 6.71L61.70 6.71L61.70 6.71Q61.63 6.69 61.56 6.71L61.56 6.71L61.56 6.71Q61.38 6.76 61.39 7.08L61.39 7.08L61.39 7.08Q61.40 7.31 61.40 7.52L61.40 7.52L61.40 7.52Q61.41 7.72 61.42 7.90L61.42 7.90L61.42 7.90Q61.43 8.05 61.42 8.19L61.42 8.19L61.42 8.19Q61.40 8.33 61.40 8.47L61.40 8.47L61.40 9.00L61.40 9.00Q61.40 9.17 61.39 9.31L61.39 9.31L61.39 9.31Q61.38 9.45 61.37 9.56ZM69.20 9.08L69.20 9.08L69.20 9.08Q69.08 9.23 68.98 9.34L68.98 9.34L68.98 9.34Q68.87 9.45 68.76 9.53L68.76 9.53L68.76 9.53Q68.64 9.60 68.50 9.66L68.50 9.66L68.50 9.66Q68.36 9.71 68.18 9.73L68.18 9.73L68.18 9.73Q68.09 9.74 68.00 9.74L68.00 9.74L68.00 9.74Q67.90 9.75 67.79 9.73L67.79 9.73L67.79 9.73Q67.64 9.72 67.50 9.72L67.50 9.72L67.50 9.72Q67.35 9.72 67.20 9.69L67.20 9.69L67.20 9.69Q66.88 9.61 66.66 9.46L66.66 9.46L66.66 9.46Q66.44 9.31 66.32 9.07L66.32 9.07L66.32 9.07Q66.17 8.74 66.49 8.73L66.49 8.73L66.49 8.73Q66.55 8.73 66.62 8.81L66.62 8.81L66.62 8.81Q66.69 8.89 66.73 8.93L66.73 8.93L66.73 8.93Q66.88 9.07 66.90 9.08L66.90 9.08L66.90 9.08L66.90 9.09L66.90 9.09Q67.24 9.32 67.79 9.32L67.79 9.32L67.80 9.32L67.81 9.32L67.81 9.32Q68.04 9.32 68.40 9.23L68.40 9.23L68.40 9.23Q68.76 9.14 68.87 8.87L68.87 8.87L68.87 8.87Q68.93 8.70 68.87 8.51L68.87 8.51L68.87 8.50L68.87 8.50Q68.70 8.14 68.21 8.02L68.21 8.02L67.37 7.80L67.37 7.80Q67.19 7.76 66.94 7.63L66.94 7.63L66.94 7.63Q66.81 7.56 66.71 7.51L66.71 7.51L66.71 7.51Q66.62 7.45 66.55 7.40L66.55 7.40L66.55 7.40Q66.27 7.19 66.23 6.99L66.23 6.99L66.23 6.99Q66.22 6.95 66.22 6.89L66.22 6.89L66.22 6.89Q66.22 6.83 66.22 6.74L66.22 6.74L66.22 6.74Q66.22 6.64 66.23 6.55L66.23 6.55L66.23 6.55Q66.25 6.46 66.26 6.36L66.26 6.36L66.26 6.36Q66.30 6.04 66.53 5.80L66.53 5.80L66.53 5.80Q66.63 5.69 66.78 5.62L66.78 5.62L66.78 5.62Q66.92 5.55 67.06 5.49L67.06 5.49L67.06 5.49Q67.25 5.40 67.46 5.40L67.46 5.40L67.46 5.40Q67.67 5.39 67.87 5.40L67.87 5.40L67.87 5.40Q68.54 5.42 68.92 5.87L68.92 5.87L68.92 5.87Q69.09 6.08 69.05 6.22L69.05 6.22L69.00 6.26L69.00 6.26Q68.89 6.32 68.74 6.19L68.74 6.19L68.74 6.19Q68.70 6.16 68.67 6.13L68.67 6.13L68.67 6.13Q68.63 6.09 68.60 6.06L68.60 6.06L68.60 6.06Q68.56 6.02 68.51 5.98L68.51 5.98L68.51 5.98Q68.46 5.95 68.39 5.91L68.39 5.91L68.37 5.90L68.35 5.90L68.35 5.90Q68.10 5.82 67.84 5.81L67.84 5.81L67.84 5.81Q67.57 5.80 67.29 5.86L67.29 5.86L67.29 5.86Q66.96 5.93 66.78 6.14L66.78 6.14L66.78 6.14Q66.60 6.34 66.60 6.67L66.60 6.67L66.60 6.69L66.61 6.70L66.61 6.70Q66.64 7.12 67.27 7.30L67.27 7.30L67.46 7.36L67.97 7.53L67.97 7.53Q68.09 7.57 68.20 7.62L68.20 7.62L68.20 7.62Q68.32 7.67 68.45 7.72L68.45 7.72L68.45 7.72Q68.64 7.81 68.80 7.90L68.80 7.90L68.80 7.90Q68.97 7.98 69.10 8.07L69.10 8.07L69.10 8.07Q69.20 8.13 69.25 8.22L69.25 8.22L69.25 8.22Q69.30 8.31 69.32 8.41L69.32 8.41L69.32 8.41Q69.34 8.51 69.33 8.62L69.33 8.62L69.33 8.62Q69.33 8.73 69.31 8.82L69.31 8.82L69.31 8.82Q69.30 8.89 69.27 8.96L69.27 8.96L69.27 8.96Q69.23 9.03 69.20 9.08ZM74.29 5.75L74.29 5.75L74.29 5.75Q74.20 5.86 73.98 5.84L73.98 5.84L73.64 5.82L73.64 5.82Q73.53 5.82 73.44 5.81L73.44 5.81L73.44 5.81Q73.34 5.80 73.24 5.80L73.24 5.80L73.24 5.80Q73.04 5.80 72.94 5.89L72.94 5.89L72.94 5.89Q72.86 5.98 72.86 6.19L72.86 6.19L72.86 6.19Q72.86 6.28 72.87 6.37L72.87 6.37L72.87 6.37Q72.88 6.47 72.88 6.56L72.88 6.56L72.88 6.56Q72.89 6.79 72.90 6.96L72.90 6.96L72.90 6.96Q72.90 7.12 72.90 7.24L72.90 7.24L72.90 7.24Q72.90 7.59 72.86 7.94L72.86 7.94L72.86 7.94Q72.84 8.10 72.86 8.26L72.86 8.26L72.86 8.26Q72.88 8.43 72.88 8.59L72.88 8.59L72.88 8.59Q72.89 8.76 72.90 8.89L72.90 8.89L72.90 8.89Q72.90 9.02 72.90 9.11L72.90 9.11L72.90 9.11Q72.90 9.15 72.90 9.20L72.90 9.20L72.90 9.20Q72.90 9.26 72.89 9.35L72.89 9.35L72.89 9.35Q72.88 9.54 72.86 9.58L72.86 9.58L72.86 9.58Q72.78 9.73 72.63 9.69L72.63 9.69L72.63 9.69Q72.45 9.65 72.45 9.43L72.45 9.43L72.45 9.43Q72.45 9.22 72.46 9.01L72.46 9.01L72.46 9.01Q72.48 8.80 72.50 8.60L72.50 8.60L72.50 8.60Q72.52 8.36 72.49 8.11L72.49 8.11L72.49 8.11Q72.47 7.87 72.47 7.62L72.47 7.62L72.47 7.62Q72.47 7.40 72.48 7.17L72.48 7.17L72.48 7.17Q72.50 6.94 72.51 6.71L72.51 6.71L72.51 6.71Q72.51 6.27 72.37 6.08L72.37 6.08L72.37 6.08Q72.29 5.99 72.18 5.94L72.18 5.94L72.18 5.94Q72.08 5.89 71.95 5.87L71.95 5.87L71.95 5.87Q71.82 5.86 71.71 5.85L71.71 5.85L71.71 5.85Q71.59 5.84 71.48 5.84L71.48 5.84L71.48 5.84Q71.40 5.84 71.27 5.84L71.27 5.84L71.27 5.84Q71.15 5.84 71.08 5.80L71.08 5.80L71.08 5.80Q71.03 5.77 71.01 5.67L71.01 5.67L71.01 5.67Q71.00 5.59 71.03 5.54L71.03 5.54L71.03 5.54Q71.08 5.46 71.27 5.43L71.27 5.43L71.27 5.43Q71.29 5.43 71.35 5.43L71.35 5.43L71.35 5.43Q71.63 5.42 71.90 5.45L71.90 5.45L71.90 5.45Q72.17 5.48 72.46 5.46L72.46 5.46L72.46 5.46Q72.58 5.46 72.69 5.44L72.69 5.44L72.69 5.44Q72.80 5.43 72.93 5.43L72.93 5.43L72.93 5.43Q73.15 5.43 73.38 5.43L73.38 5.43L73.38 5.43Q73.61 5.43 73.83 5.42L73.83 5.42L73.83 5.42Q73.95 5.42 74.04 5.43L74.04 5.43L74.04 5.43Q74.12 5.43 74.18 5.46L74.18 5.46L74.18 5.46Q74.40 5.61 74.29 5.75ZM76.01 9.29L76.01 9.29L76.01 9.29Q76.00 8.87 76.01 8.46L76.01 8.46L76.01 8.46Q76.01 8.04 76.01 7.62L76.01 7.62L76.01 7.38L76.01 7.38Q76.01 7.20 76.00 7.01L76.00 7.01L76.00 7.01Q75.99 6.82 76.00 6.64L76.00 6.64L76.00 6.64Q76.01 6.43 76.01 6.23L76.01 6.23L76.01 6.23Q76.01 6.03 76.02 5.82L76.02 5.82L76.02 5.82Q76.02 5.58 76.13 5.48L76.13 5.48L76.13 5.48Q76.22 5.41 76.45 5.41L76.45 5.41L76.45 5.41Q76.56 5.41 76.65 5.40L76.65 5.40L76.65 5.40Q76.73 5.40 76.79 5.40L76.79 5.40L76.79 5.40Q77.06 5.39 77.33 5.40L77.33 5.40L77.33 5.40Q77.59 5.41 77.86 5.41L77.86 5.41L77.86 5.41Q78.00 5.40 78.15 5.40L78.15 5.40L78.15 5.40Q78.29 5.39 78.43 5.41L78.43 5.41L78.78 5.43L78.78 5.43Q78.84 5.43 78.88 5.43L78.88 5.43L78.88 5.43Q78.93 5.43 78.96 5.45L78.96 5.45L78.96 5.45Q79.11 5.52 79.10 5.66L79.10 5.66L79.10 5.66Q79.09 5.72 79.05 5.76L79.05 5.76L79.05 5.76Q79.01 5.80 78.96 5.82L78.96 5.82L78.96 5.82Q78.91 5.84 78.85 5.84L78.85 5.84L78.85 5.84Q78.80 5.85 78.76 5.85L78.76 5.85L78.76 5.85Q78.34 5.85 77.93 5.83L77.93 5.83L77.93 5.83Q77.89 5.82 77.83 5.82L77.83 5.82L77.83 5.82Q77.77 5.82 77.69 5.82L77.69 5.82L77.29 5.82L77.29 5.82Q77.14 5.82 77.01 5.83L77.01 5.83L77.01 5.83Q76.89 5.83 76.81 5.83L76.81 5.83L76.81 5.83Q76.69 5.84 76.62 5.86L76.62 5.86L76.62 5.86Q76.54 5.89 76.51 5.94L76.51 5.94L76.51 5.94Q76.45 6.02 76.47 6.15L76.47 6.15L76.47 6.15Q76.47 6.20 76.47 6.24L76.47 6.24L76.47 6.24Q76.47 6.28 76.46 6.32L76.46 6.32L76.46 6.32Q76.45 6.40 76.44 6.49L76.44 6.49L76.44 6.49Q76.43 6.58 76.44 6.69L76.44 6.69L76.44 6.69Q76.44 6.88 76.59 7.01L76.59 7.01L76.59 7.01Q76.71 7.12 77.03 7.10L77.03 7.10L77.03 7.10Q77.18 7.10 77.32 7.08L77.32 7.08L77.32 7.08Q77.46 7.06 77.60 7.07L77.60 7.07L77.60 7.07Q77.66 7.07 77.76 7.07L77.76 7.07L77.76 7.07Q77.86 7.08 78.00 7.07L78.00 7.07L78.00 7.07Q78.27 7.06 78.37 7.16L78.37 7.16L78.37 7.16Q78.40 7.21 78.39 7.32L78.39 7.32L78.39 7.32Q78.37 7.44 78.20 7.47L78.20 7.47L78.20 7.47Q78.05 7.50 77.95 7.50L77.95 7.50L77.95 7.50Q77.83 7.51 77.71 7.50L77.71 7.50L77.71 7.50Q77.59 7.50 77.46 7.51L77.46 7.51L77.46 7.51Q77.31 7.52 77.16 7.51L77.16 7.51L77.16 7.51Q77 7.51 76.83 7.49L76.83 7.49L76.83 7.49Q76.81 7.49 76.78 7.49L76.78 7.49L76.78 7.49Q76.75 7.49 76.73 7.49L76.73 7.49L76.73 7.49L76.73 7.49Q76.65 7.47 76.58 7.52L76.58 7.52L76.58 7.52Q76.45 7.59 76.44 7.78L76.44 7.78L76.44 7.78Q76.43 7.96 76.44 8.09L76.44 8.09L76.44 8.09Q76.45 8.16 76.45 8.22L76.45 8.22L76.45 8.22Q76.45 8.29 76.45 8.33L76.45 8.33L76.45 8.33Q76.43 8.44 76.42 8.53L76.42 8.53L76.42 8.53Q76.41 8.63 76.40 8.74L76.40 8.74L76.40 8.74Q76.38 9.00 76.47 9.13L76.47 9.13L76.47 9.13Q76.58 9.28 76.87 9.28L76.87 9.28L76.87 9.28Q77.10 9.28 77.33 9.27L77.33 9.27L77.33 9.27Q77.56 9.26 77.79 9.25L77.79 9.25L77.79 9.25Q78.00 9.24 78.23 9.26L78.23 9.26L78.23 9.26Q78.45 9.28 78.67 9.28L78.67 9.28L78.67 9.28Q78.75 9.28 78.89 9.28L78.89 9.28L78.89 9.28Q79.02 9.28 79.10 9.32L79.10 9.32L79.10 9.32Q79.17 9.36 79.17 9.44L79.17 9.44L79.17 9.44Q79.25 9.69 78.96 9.70L78.96 9.70L78.96 9.70Q78.51 9.72 78.08 9.71L78.08 9.71L78.08 9.71Q77.64 9.71 77.21 9.71L77.21 9.71L77.21 9.71Q77.18 9.71 77.15 9.72L77.15 9.72L77.15 9.72Q77.13 9.72 77.11 9.72L77.11 9.72L77.11 9.72Q76.95 9.72 76.84 9.72L76.84 9.72L76.84 9.72Q76.73 9.72 76.65 9.71L76.65 9.71L76.65 9.71Q76.60 9.71 76.54 9.71L76.54 9.71L76.54 9.71Q76.47 9.71 76.39 9.70L76.39 9.70L76.39 9.70Q76.32 9.69 76.28 9.69L76.28 9.69L76.28 9.69Q76.23 9.68 76.21 9.67L76.21 9.67L76.21 9.67Q76.01 9.61 76.01 9.29ZM83.42 5.67L83.42 5.67L83.42 5.67Q83.56 5.82 83.65 5.99L83.65 5.99L83.65 5.99Q83.73 6.16 83.82 6.34L83.82 6.34L83.82 6.34Q83.92 6.54 83.88 6.74L83.88 6.74L83.88 6.74Q83.84 6.94 83.66 7.13L83.66 7.13L83.66 7.13Q83.51 7.28 83.18 7.37L83.18 7.37L83.18 7.37Q83.06 7.40 82.92 7.44L82.92 7.44L82.92 7.44Q82.78 7.48 82.72 7.60L82.72 7.60L82.72 7.60Q82.68 7.72 82.74 7.84L82.74 7.84L82.74 7.84Q82.81 7.97 82.85 8.05L82.85 8.05L82.85 8.05Q82.89 8.13 82.92 8.18L82.92 8.18L82.92 8.18Q82.95 8.24 83.01 8.33L83.01 8.33L83.01 8.33Q83.06 8.42 83.14 8.52L83.14 8.52L83.14 8.52Q83.30 8.74 83.47 8.93L83.47 8.93L83.47 8.93Q83.64 9.13 83.82 9.30L83.82 9.30L83.86 9.34L83.86 9.34Q84.01 9.49 83.86 9.63L83.86 9.63L83.86 9.63Q83.71 9.79 83.56 9.64L83.56 9.64L83.56 9.64Q83.45 9.52 83.36 9.43L83.36 9.43L83.36 9.43Q83.27 9.34 83.19 9.26L83.19 9.26L83.19 9.26Q83.03 9.05 82.89 8.83L82.89 8.83L82.89 8.83Q82.78 8.67 82.68 8.53L82.68 8.53L82.68 8.53Q82.57 8.39 82.48 8.23L82.48 8.23L82.48 8.23Q82.20 7.74 81.80 7.58L81.80 7.58L81.80 7.58Q81.37 7.42 81.17 7.70L81.17 7.70L81.17 7.70Q81.11 7.80 81.11 7.92L81.11 7.92L81.11 9.40L81.11 9.49L81.11 9.49Q81.11 9.69 80.90 9.70L80.90 9.70L80.90 9.70Q80.68 9.69 80.68 9.44L80.68 9.44L80.68 9.44Q80.68 9.28 80.69 9.12L80.69 9.12L80.69 9.12Q80.71 8.95 80.71 8.76L80.71 8.76L80.71 8.76Q80.72 8.63 80.71 8.49L80.71 8.49L80.71 8.49Q80.70 8.35 80.70 8.22L80.70 8.22L80.70 8.22Q80.70 8.09 80.71 7.96L80.71 7.96L80.71 7.96Q80.71 7.83 80.71 7.70L80.71 7.70L80.71 7.70Q80.72 7.40 80.69 7.07L80.69 7.07L80.69 7.07Q80.69 6.84 80.70 6.61L80.70 6.61L80.70 6.61Q80.71 6.38 80.71 6.14L80.71 6.14L80.71 6.14Q80.70 6.02 80.70 5.86L80.70 5.86L80.70 5.86Q80.70 5.71 80.74 5.58L80.74 5.58L80.74 5.58Q80.86 5.42 81.32 5.42L81.32 5.42L81.53 5.42L81.53 5.42Q81.78 5.42 82.03 5.44L82.03 5.44L82.03 5.44Q82.28 5.46 82.52 5.45L82.52 5.45L82.52 5.45Q83.09 5.42 83.42 5.67ZM81.50 7.15L81.50 7.15L81.50 7.15Q81.76 7.16 81.96 7.16L81.96 7.16L81.96 7.16Q82.15 7.16 82.29 7.14L82.29 7.14L82.29 7.14Q82.42 7.13 82.58 7.11L82.58 7.11L82.58 7.11Q82.74 7.09 82.93 7.05L82.93 7.05L82.93 7.05Q83.32 6.97 83.44 6.69L83.44 6.69L83.44 6.69Q83.49 6.59 83.47 6.47L83.47 6.47L83.47 6.47Q83.46 6.34 83.40 6.24L83.40 6.24L83.40 6.24Q83.33 6.14 83.23 6.07L83.23 6.07L83.23 6.07Q83.13 6.00 83.02 5.94L83.02 5.94L83.02 5.94Q82.90 5.89 82.79 5.87L82.79 5.87L82.79 5.87Q82.50 5.82 82.22 5.83L82.22 5.83L82.22 5.83Q81.94 5.84 81.65 5.82L81.65 5.82L81.65 5.82Q81.59 5.82 81.54 5.82L81.54 5.82L81.54 5.82Q81.49 5.82 81.44 5.82L81.44 5.82L81.44 5.82Q81.29 5.81 81.22 5.89L81.22 5.89L81.22 5.89Q81.16 5.96 81.17 6.08L81.17 6.08L81.17 6.08Q81.18 6.12 81.18 6.23L81.18 6.23L81.18 6.23Q81.17 6.33 81.15 6.43L81.15 6.43L81.15 6.43Q81.14 6.52 81.13 6.62L81.13 6.62L81.13 6.62Q81.09 6.88 81.19 7.01L81.19 7.01L81.19 7.01Q81.28 7.14 81.50 7.15Z"></path></g><!----><g data-v-423bf9ae="" id="abd7e0d9-fbcc-46c6-a66f-cd2676df8527" transform="matrix(1.470588491953917,0,0,1.470588491953917,-38.256397613694645,-28.129416564390723)" stroke="none" fill="black"><path d="M50 19.4c-13.1 0-23.8 10.6-23.8 23.8v26.4c0 2.6 2.1 4.7 4.7 4.7h.1c2.6 0 4.7-2.1 4.7-4.7v-5.4c0-2.6 2.1-4.7 4.7-4.7h.1c2.6 0 4.7 2.1 4.7 4.7v11.7c0 2.6 2.1 4.7 4.7 4.7h.1c2.6 0 4.7-2.1 4.7-4.7V64.2c0-2.6 2.1-4.7 4.7-4.7s4.7 2.1 4.7 4.7v5c0 2.6 2.1 4.7 4.7 4.7h.2c2.6 0 4.7-2.1 4.7-4.7V43.1C73.8 30 63.1 19.4 50 19.4zm0 32.5c-5.9 0-10.7-4.8-10.7-10.7S44.1 30.4 50 30.4c5.9 0 10.7 4.8 10.7 10.7S55.9 51.9 50 51.9zm2.2-10.8c0 1.2.8 2.2 1.9 2.5C53.3 45 51.7 46 50 46c-2.7 0-4.8-2.2-4.8-4.8 0-2.7 2.2-4.8 4.8-4.8 1.7 0 3.3.9 4.1 2.3-1.1.2-1.9 1.2-1.9 2.4z"></path></g><!----></svg>